<?xml version="1.0" encoding="utf-8"?>
<!-- Generator: Adobe Illustrator 24.0.2, SVG Export Plug-In . SVG Version: 6.00 Build 0)  -->
<svg version="1.1" id="Capa_1" xmlns="http://www.w3.org/2000/svg" xmlns:xlink="http://www.w3.org/1999/xlink" x="0px" y="0px"
	 viewBox="0 0 841.9 466" style="enable-background:new 0 0 841.9 466;" xml:space="preserve">
<style type="text/css">
	.st0{fill:#FFFFFF;stroke:#FFFFFF;stroke-width:8;stroke-miterlimit:10;}
	.st1{fill:none;}
	.st2{fill:none;stroke:#FFFFFF;stroke-width:8;stroke-miterlimit:10;stroke-dasharray:20;}
	.st3{fill:#FFFFFF;}
</style>
<g>
	<path class="st0" d="M551.2,324.8c-0.3-0.9-0.9-1.8-1.7-2.2c-12.8-6.9-25.6-13.7-38.4-20.6c-0.2-0.1-0.3-0.3-0.6-0.6
		c3.6-2.5,7-5.1,10.6-7.5c0.5-0.4,1.5-0.2,2.2-0.1c9,1.4,17.9,2.8,26.9,4.2c6,1,11.9,1.9,17.9,2.9c1.3,0.2,2.2,0,3.3-1
		c17.5-16.4,34.9-32.9,52.6-49.1c12.5-11.4,25.6-22.3,38.4-33.5c0.4-0.4,0.8-0.7,1.3-1.2c-47-24.9-93.9-49.7-141-74.6
		c-7-3.7-6.8-13.8,0.3-17.3l0.2-0.1c3-1.5,6.1-3,9.2-4.4c3-1.4,6.4-1.7,9.6-0.8c9.7,2.6,19.4,5.3,29,8c32.3,9,64.6,18,96.9,27
		c17.5,4.9,34.9,9.7,52.3,14.6c3,0.8,7.5,0.1,10.1-1.5c12.4-7.9,25.2-15.2,38.4-21.7c16-7.9,32.3-15.3,50-18.9c3.6-0.7,7.3-1,10.9-1
		c2.8,0,5.5,1.1,7.4,3.2c0.4,0.5,0.8,1,1.3,1.7c0.4,0.6,0.8,1.2,1.1,1.8c1.3,2.5,1.3,5.4,0.3,8c-1.4,3.4-3,6.8-5,9.8
		c-11.5,17.6-27.1,31.5-42.7,45.3c-8.9,7.9-18.5,14.7-28,21.9c-2.4,1.9-4.7,5.7-5,8.7c-2,18-3.9,36-5.9,54
		c-3.6,33.3-7.2,66.7-10.8,100c-1.1,10-2.2,20-3.3,30c-0.4,3.3-1.9,6.4-4.3,8.6c-2.5,2.3-5,4.6-7.5,6.9l-0.1,0.1
		c-5.9,5.4-15.3,1.8-16.2-6.1c-5.7-53-11.4-105.7-17.1-158.6c-0.7,0.3-1.2,0.5-1.6,0.8c-15.1,7.8-30,15.8-45.3,23.3
		c-21.6,10.5-43.3,20.5-65.1,30.7c-1.3,0.6-1.9,1.4-2.2,2.7c-1.3,5.9-2.6,11.8-3.9,17.7c-2,8.9-4,17.7-6.1,26.5
		c-0.2,0.7-0.4,1.6-0.9,2c-3.5,2.4-7.2,4.7-10.9,7.1c-0.2-0.4-0.3-0.6-0.3-0.8c-1.6-14.4-3.2-28.9-4.9-43.3
		C552.5,326.4,551.9,325.4,551.2,324.8L551.2,324.8z"/>
</g>
<g>
	<path class="st1" d="M517.5,561"/>
</g>
<path class="st2" d="M56.3,389.4c11.4,8.4,24.1,14.9,37.5,19.5c65.2,22,268,73.1,442.4-69.4"/>
<g>
	<g>
		<path class="st3" d="M39.7,259.8c-2.5,0.3-5,0.4-7.4,0.9C6.9,266.2-6,292.9,5.8,316c10.1,19.6,20.7,39,31.2,58.4
			c0.5,1,1.8,2.1,2.7,2.1c0.9,0,2.1-1.2,2.6-2.2c10.4-19.3,20.9-38.5,31-58C86.8,290.4,68.6,260,39.7,259.8z M39.5,314.7
			c-9.4,0-17-7.5-17-16.8c0-9.2,7.5-16.7,16.8-16.8c9.4,0,17,7.4,17,16.8C56.3,307,48.7,314.6,39.5,314.7z"/>
	</g>
</g>
</svg>
