<?xml version="1.0" encoding="utf-8"?>
<!-- Generator: Adobe Illustrator 24.0.2, SVG Export Plug-In . SVG Version: 6.00 Build 0)  -->
<svg version="1.1" id="Capa_1" xmlns="http://www.w3.org/2000/svg" xmlns:xlink="http://www.w3.org/1999/xlink" x="0px" y="0px"
	 viewBox="0 0 900 900" style="enable-background:new 0 0 900 900;" xml:space="preserve">
<style type="text/css">
	.st0{fill:#454545;stroke:#454545;stroke-width:8;stroke-miterlimit:10;}
	.st1{fill:none;stroke:#454545;stroke-miterlimit:10;}
	.st2{fill:none;stroke:#454545;stroke-width:8;stroke-miterlimit:10;stroke-dasharray:20;}
	.st3{fill:#454545;stroke:#454545;stroke-miterlimit:10;}
</style>
<g>
	<path class="st0" d="M586.3,502.4c-0.3-1-1-1.9-1.8-2.3c-13.6-7.3-27.1-14.5-40.7-21.8c-0.2-0.1-0.3-0.3-0.6-0.6
		c3.8-2.6,7.4-5.4,11.2-7.9c0.5-0.4,1.6-0.2,2.3-0.1c9.5,1.5,18.9,3,28.5,4.4c6.4,1.1,12.6,2,18.9,3.1c1.4,0.2,2.3,0,3.5-1.1
		c18.5-17.4,36.9-34.8,55.7-52c13.2-12.1,27.1-23.6,40.7-35.5c0.4-0.4,0.8-0.7,1.4-1.3c-49.8-26.4-99.4-52.6-149.3-79
		c-7.4-3.9-7.2-14.6,0.3-18.3l0.2-0.1c3.2-1.6,6.5-3.2,9.7-4.7c3.2-1.5,6.8-1.8,10.2-0.8c10.3,2.8,20.5,5.6,30.7,8.5
		c34.2,9.5,68.4,19.1,102.6,28.6c18.5,5.2,36.9,10.3,55.4,15.5c3.2,0.8,7.9,0.1,10.7-1.6c13.1-8.4,26.7-16.1,40.7-23
		c16.9-8.4,34.2-16.2,52.9-20c3.8-0.7,7.7-1.1,11.5-1.1c3,0,5.8,1.2,7.8,3.4c0.4,0.5,0.8,1.1,1.4,1.8c0.4,0.6,0.8,1.3,1.2,1.9
		c1.4,2.6,1.4,5.7,0.3,8.5c-1.5,3.6-3.2,7.2-5.3,10.4c-12.2,18.6-28.7,33.3-45.2,48c-9.4,8.4-19.6,15.6-29.6,23.2
		c-2.5,2-5,6-5.3,9.2c-2.1,19.1-4.1,38.1-6.2,57.2c-3.8,35.3-7.6,70.6-11.4,105.9c-1.2,10.6-2.3,21.2-3.5,31.8
		c-0.4,3.5-2,6.8-4.6,9.1c-2.6,2.4-5.3,4.9-7.9,7.3l-0.1,0.1c-6.2,5.7-16.2,1.9-17.1-6.5c-6-56.1-12.1-111.9-18.1-167.9
		c-0.7,0.3-1.3,0.5-1.7,0.8c-16,8.3-31.8,16.7-48,24.7c-22.9,11.1-45.8,21.7-68.9,32.5c-1.4,0.6-2,1.5-2.3,2.9
		c-1.4,6.2-2.8,12.5-4.1,18.7c-2.1,9.4-4.2,18.7-6.5,28.1c-0.2,0.7-0.4,1.7-1,2.1c-3.7,2.5-7.6,5-11.5,7.5c-0.2-0.4-0.3-0.6-0.3-0.8
		c-1.7-15.2-3.4-30.6-5.2-45.8C587.7,504.1,587.1,503.1,586.3,502.4L586.3,502.4z"/>
</g>
<g>
	<path class="st1" d="M550.7,752.5"/>
</g>
<path class="st2" d="M62.4,570.8c12.1,8.9,25.5,15.8,39.7,20.6c69,23.3,283.7,77.4,468.3-73.5"/>
<g>
	<g>
		<path class="st3" d="M44.9,433.6c-2.6,0.3-5.3,0.4-7.8,1C10.1,440.4-3.5,468.7,9,493.1c10.7,20.7,21.9,41.3,33,61.8
			c0.5,1.1,1.9,2.2,2.9,2.2c1,0,2.2-1.3,2.8-2.3c11-20.4,22.1-40.8,32.8-61.4C94.7,466,75.5,433.8,44.9,433.6z M44.6,491.7
			c-10,0-18-7.9-18-17.8c0-9.7,7.9-17.7,17.8-17.8c10,0,18,7.8,18,17.8C62.4,483.6,54.4,491.6,44.6,491.7z"/>
	</g>
</g>
</svg>
