<?xml version="1.0" encoding="utf-8"?>
<!-- Generator: Adobe Illustrator 24.0.2, SVG Export Plug-In . SVG Version: 6.00 Build 0)  -->
<svg version="1.1" id="Capa_1" xmlns="http://www.w3.org/2000/svg" xmlns:xlink="http://www.w3.org/1999/xlink" x="0px" y="0px"
	 viewBox="0 0 900 900" style="enable-background:new 0 0 900 900;" xml:space="preserve">
<style type="text/css">
	.st0{fill:none;stroke:#454545;stroke-width:8;stroke-miterlimit:10;}
</style>
<g>
	<path class="st0" d="M567,789.3c-0.7-8-2-16-3.2-24c-11.1-77-22.3-154-33.4-230.8c-10.1-69.9-20.3-140-30.3-209.9
		c-2-13.9-8.1-19.5-22.1-19.6c-18.3-0.1-36.4-0.1-54.7,0c-14.4,0.1-20.4,4.9-22.5,19.1c-4.9,32.7-9.5,65.5-14.1,98.2
		c-6.3,43.8-12.5,87.5-18.8,131.2c-5.9,40.4-11.7,81-17.6,121.4c-5.7,39.8-11.5,79.4-17.3,120.1 M567.2,170
		c-2.9,0.3-6.3,0.1-9.5,0.8c-4.4,1.1-8.8,2.3-12.9,4.1c-31.5,14.4-52.4,39.5-69.4,68.6c-0.1,0.3-0.3,0.4-0.3,0.7
		c-0.7,3.1,2.4,5.7,5.3,5.2c0.4-0.1,0.8-0.1,1.3-0.4c22.1-9.2,44-9.6,65.9,0.5c9.6,4.4,19.5,6.7,30.2,5.6
		c21.1-2.1,39.4-22,37.6-41.4C613.5,190,591.4,169.9,567.2,170z"/>
	<path class="st0" d="M474.7,78.1c11.5-1.3,23.2,1.7,31.8,9.5c4.7,4.3,8.3,9.5,10.4,16.3c5.9,18.4,0.1,38-16.1,50.7
		c-16.1,12.7-28.6,27.8-33,48.3c-0.8,3.9-1.1,8-2,11.9c0,0.3-0.1,0.4-0.1,0.7c-1.1,3.7-6.3,5.1-8.7,1.9c-0.1-0.3-0.4-0.5-0.5-0.8
		c-7.7-16.8-16.3-33.5-22.4-51c-5.1-14.4-6.7-29.9-3.7-45.5c4-21.7,15.9-35.9,37.8-40.8c0.1,0,0.3,0,0.4-0.1
		C469.1,78.9,471.6,78.5,474.7,78.1z"/>
	<path class="st0" d="M332.9,793.6c5.9-40.7,11.5-79.3,17.3-118.9c5.9-40.4,11.9-81,17.6-121.4c6.3-43.8,12.5-87.5,18.8-131.2
		c4.7-32.7,9.2-65.5,14.1-98.2c2.1-14.1,8.1-18.9,22.5-19.1c18.3-0.1,36.4-0.1,54.7,0c14,0.1,20.1,5.9,22.1,19.6
		c10.1,69.9,20.1,140,30.3,209.9c11.1,77,22.3,154,33.4,230.8c1.2,8,2.5,20.3,3.2,28.3 M370.8,780.4c0.5,0.3,1.2,0.5,1.7,0.9
		c38.4-27.9,76.9-55.8,115.9-84.1c-32.2-24.7-63.4-48.6-95.3-73C385.6,677.3,378.1,728.8,370.8,780.4z M422.8,602.3
		c30.4,23.3,60.3,46.3,91.7,70.3c-5.9-40.2-11.3-78.5-17.1-117.8C471.8,571.2,447.6,586.5,422.8,602.3z M413.1,486.9
		c-4.3,30-8.4,58.3-12.7,87.8c23.9-15.2,46.8-29.9,70.4-44.8C451.1,515.3,432.5,501.4,413.1,486.9z M422.4,422
		c16.8-14.1,32.2-27,47.2-39.9c1.3-1.1,2.1-3.5,2-5.2c-1.5-12.1-3.3-24.3-4.9-36.2c-11.3,0-21.9,0-32.4,0
		C430.3,367.5,426.5,393.6,422.4,422z M434.1,458.5c18.5,13.7,36.4,27.1,55.5,41.4c-3.9-26.8-7.6-52-11.3-78.6
		C462.8,434.2,448.8,446.1,434.1,458.5z"/>
	<path class="st0" d="M567.2,170c24.3-0.1,46.3,20,48.4,43.9c1.7,19.2-16.7,39.2-37.6,41.4c-10.7,1.1-20.5-1.2-30.2-5.6
		c-21.9-10.1-43.9-9.7-65.9-0.5c-0.4,0.1-0.8,0.3-1.3,0.4c-3.1,0.5-6.1-2.1-5.3-5.2c0-0.3,0.1-0.5,0.3-0.7
		c16.9-29.1,37.9-54.3,69.4-68.6c4.1-1.9,8.5-3.1,12.9-4.1C560.9,170.1,564.2,170.3,567.2,170z"/>
	<path class="st0" d="M351.4,170c-24.3-0.1-46.3,20-48.4,43.9c-1.7,19.2,16.7,39.2,37.6,41.4c10.7,1.1,20.5-1.2,30.2-5.6
		c21.9-10.1,43.9-9.7,65.9-0.5c0.4,0.1,0.8,0.3,1.3,0.4c3.1,0.5,6.1-2.1,5.3-5.2c0-0.3-0.1-0.5-0.3-0.7
		c-16.9-29.1-37.9-54.3-69.4-68.6c-4.1-1.9-8.5-3.1-12.9-4.1C357.7,170.1,354.4,170.3,351.4,170z"/>
	<path class="st0" d="M370.8,780.4c7.5-51.5,14.8-103,22.5-156.2c31.9,24.4,63,48.3,95.3,73c-39.1,28.3-77.5,56.2-115.9,84.1
		C371.8,780.9,371.3,780.7,370.8,780.4z"/>
	<path class="st0" d="M422.8,602.3c24.7-15.7,49-31.1,74.6-47.4c5.7,39.4,11.2,77.5,17.1,117.8C483.2,648.6,453.4,625.6,422.8,602.3
		z"/>
	<path class="st0" d="M521,717.2c3.6,24.7,6.8,51.8,10.3,75.4c-36,0-75.2,0-112.7,0C452,768.3,487.9,741.2,521,717.2z"/>
	<path class="st0" d="M413.1,486.9c19.5,14.5,38,28.3,57.8,43c-23.6,15.1-46.6,29.6-70.4,44.8C404.7,545.2,408.7,516.9,413.1,486.9z
		"/>
	<path class="st0" d="M422.4,422c4.1-28.4,7.9-54.6,11.7-81.3c10.7,0,21.1,0,32.4,0c1.7,11.9,3.5,24,4.9,36.2c0.1,1.6-0.7,4.1-2,5.2
		C454.6,395.1,439.2,407.9,422.4,422z"/>
	<path class="st0" d="M434.1,458.5c14.7-12.4,28.7-24.3,44-37.2c3.9,26.6,7.5,51.8,11.3,78.6C470.6,485.7,452.7,472.3,434.1,458.5z"
		/>
</g>
<rect x="271.9" y="792.9" class="st0" width="356.1" height="29.4"/>
</svg>
