<?xml version="1.0" encoding="utf-8"?>
<!-- Generator: Adobe Illustrator 24.0.2, SVG Export Plug-In . SVG Version: 6.00 Build 0)  -->
<svg version="1.1" id="Capa_1" xmlns="http://www.w3.org/2000/svg" xmlns:xlink="http://www.w3.org/1999/xlink" x="0px" y="0px"
	 viewBox="0 0 900 900" style="enable-background:new 0 0 900 900;" xml:space="preserve">
<style type="text/css">
	.st0{fill:none;stroke:#454545;stroke-miterlimit:10;}
	.st1{fill:none;stroke:#454545;stroke-width:8;stroke-miterlimit:10;}
	.st2{fill:#454545;stroke:#454545;stroke-miterlimit:10;}
</style>
<g>
	<path class="st0" d="M389.4,258.2"/>
</g>
<path class="st1" d="M314.3,198.6h365.3c106.6,0,104.6,111.6,104.6,111.6H666.2v359c0,0-4,82.5-97.4,87.2H224.7
	c-19.8,0-38.1-13.7-44.7-34.9c-3.2-10.5-3.8-22.6,1.9-35.7c7.5-17.4,23.4-28.2,40.6-28.7l87-2.8V277"/>
<path class="st1" d="M220.1,657l295.5-3.1c0,0,5.7,81.3,37.2,102.3"/>
<path class="st2" d="M430.3,372.4c0,0-169,74.6-274.5-183.4c-8.5-20.6-28-35-50.3-36.1c-0.9,0-1.9-0.1-2.8-0.1
	C102.8,152.7,374.5,39,430.3,372.4"/>
<g>
	<path class="st2" d="M454.8,425.9c-1.3-3.4-2.7-6.5-4.2-9.7c-1.5-3.2-3.2-6.3-4.9-9.4c-3.5-6.1-7.1-12.1-11-17.8
		c-2-2.8-3.9-5.8-6.1-8.5l-3.2-4.2c-0.5-0.7-1.1-1.3-1.6-2l-1.8-2c-2.3-2.7-4.4-5.4-6.7-8.1l-7-7.7c-2.3-2.6-5-4.9-7.4-7.3l-3.8-3.5
		c-1.2-1.2-2.7-2.3-3.9-3.4c-2.7-2.3-5.3-4.6-7.8-6.9c-2.7-2.3-5.3-4.4-7.8-6.9l-3.8-3.5c-1.2-1.2-2.7-2.3-3.9-3.4
		c-2.7-2.3-5.3-4.6-7.8-7l-1.9-1.8l-2-1.8c-1.3-1.1-2.7-2.3-4-3.5c-2.7-2.4-5.3-4.7-7.8-7.4l0.5-0.9c3.4,1.2,6.7,2.7,10,4.2
		c1.6,0.8,3.2,1.5,4.9,2.3l2.4,1.2l2.3,1.3c3.1,1.8,6.2,3.6,9.3,5.7c1.5,0.9,3.1,1.9,4.6,3l4.3,3.2c2.8,2.2,5.7,4.4,8.5,6.7
		c2.6,2.4,5.3,5,7.7,7.5c1.2,1.3,2.6,2.6,3.8,3.9l3.5,4l3.5,4c1.2,1.3,2.4,2.7,3.5,4.2c9.3,11,17.4,22.9,24.4,35.4
		c6.9,12.5,12.9,25.6,16.6,39.3L454.8,425.9z"/>
</g>
<line class="st1" x1="626.4" y1="320.2" x2="351.1" y2="320.2"/>
<line class="st1" x1="626.4" y1="372.8" x2="351.1" y2="372.8"/>
<line class="st1" x1="626.4" y1="425.2" x2="351.1" y2="425.2"/>
<line class="st1" x1="626.4" y1="480.7" x2="351.1" y2="480.7"/>
<line class="st1" x1="626.4" y1="533.3" x2="351.1" y2="533.3"/>
<line class="st1" x1="503.3" y1="585.7" x2="351.1" y2="585.7"/>
</svg>
