<?xml version="1.0" encoding="utf-8"?>
<!-- Generator: Adobe Illustrator 24.0.2, SVG Export Plug-In . SVG Version: 6.00 Build 0)  -->
<svg version="1.1" id="Capa_1" xmlns="http://www.w3.org/2000/svg" xmlns:xlink="http://www.w3.org/1999/xlink" x="0px" y="0px"
	 viewBox="0 0 287 595.3" style="enable-background:new 0 0 287 595.3;" xml:space="preserve">
<style type="text/css">
	.st0{fill:none;stroke:#FFFFFF;stroke-width:8;stroke-miterlimit:10;}
</style>
<g>
	<g>
		<path class="st0" d="M228.7,552c-0.5-6-1.5-12-2.4-18c-8.3-57.7-16.7-115.4-25-173c-7.6-52.4-15.2-104.9-22.7-157.3
			c-1.5-10.4-6.1-14.6-16.6-14.7c-13.7-0.1-27.3-0.1-41,0c-10.8,0.1-15.3,3.7-16.9,14.3c-3.7,24.5-7.1,49.1-10.6,73.6
			c-4.7,32.8-9.4,65.6-14.1,98.3c-4.4,30.3-8.8,60.7-13.2,91c-4.3,29.8-8.6,59.5-13,90 M228.8,87.8c-2.2,0.2-4.7,0.1-7.1,0.6
			c-3.3,0.8-6.6,1.7-9.7,3.1c-23.6,10.8-39.3,29.6-52,51.4c-0.1,0.2-0.2,0.3-0.2,0.5c-0.5,2.3,1.8,4.3,4,3.9c0.3-0.1,0.6-0.1,1-0.3
			c16.6-6.9,33-7.2,49.4,0.4c7.2,3.3,14.6,5,22.6,4.2c15.8-1.6,29.5-16.5,28.2-31C263.5,102.8,247,87.7,228.8,87.8z"/>
		<path class="st0" d="M159.5,18.9c8.6-1,17.4,1.3,23.8,7.1c3.5,3.2,6.2,7.1,7.8,12.2c4.4,13.8,0.1,28.5-12.1,38
			c-12.1,9.5-21.4,20.8-24.7,36.2c-0.6,2.9-0.8,6-1.5,8.9c0,0.2-0.1,0.3-0.1,0.5c-0.8,2.8-4.7,3.8-6.5,1.4c-0.1-0.2-0.3-0.4-0.4-0.6
			c-5.8-12.6-12.2-25.1-16.8-38.2c-3.8-10.8-5-22.4-2.8-34.1c3-16.3,11.9-26.9,28.3-30.6c0.1,0,0.2,0,0.3-0.1
			C155.3,19.5,157.2,19.2,159.5,18.9z"/>
		<path class="st0" d="M53.2,555.2c4.4-30.5,8.6-59.4,13-89.1c4.4-30.3,8.9-60.7,13.2-91c4.7-32.8,9.4-65.6,14.1-98.3
			c3.5-24.5,6.9-49.1,10.6-73.6c1.6-10.6,6.1-14.2,16.9-14.3c13.7-0.1,27.3-0.1,41,0c10.5,0.1,15.1,4.4,16.6,14.7
			c7.6,52.4,15.1,104.9,22.7,157.3c8.3,57.7,16.7,115.4,25,173c0.9,6,1.9,15.2,2.4,21.2 M81.6,545.3c0.4,0.2,0.9,0.4,1.3,0.7
			c28.8-20.9,57.6-41.8,86.9-63c-24.1-18.5-47.5-36.4-71.4-54.7C92.7,468,87.1,506.6,81.6,545.3z M120.6,411.8
			c22.8,17.5,45.2,34.7,68.7,52.7c-4.4-30.1-8.5-58.8-12.8-88.3C157.3,388.5,139.2,400,120.6,411.8z M113.3,325.3
			c-3.2,22.5-6.3,43.7-9.5,65.8c17.9-11.4,35.1-22.4,52.8-33.6C141.8,346.6,127.9,336.2,113.3,325.3z M120.3,276.7
			c12.6-10.6,24.1-20.2,35.4-29.9c1-0.8,1.6-2.6,1.5-3.9c-1.1-9.1-2.5-18.2-3.7-27.1c-8.5,0-16.4,0-24.3,0
			C126.2,235.8,123.4,255.4,120.3,276.7z M129.1,304c13.9,10.3,27.3,20.3,41.6,31c-2.9-20.1-5.7-39-8.5-58.9
			C150.6,285.8,140.1,294.7,129.1,304z"/>
		<path class="st0" d="M228.8,87.8c18.2-0.1,34.7,15,36.3,32.9c1.3,14.4-12.5,29.4-28.2,31c-8,0.8-15.4-0.9-22.6-4.2
			c-16.4-7.6-32.9-7.3-49.4-0.4c-0.3,0.1-0.6,0.2-1,0.3c-2.3,0.4-4.6-1.6-4-3.9c0-0.2,0.1-0.4,0.2-0.5c12.7-21.8,28.4-40.7,52-51.4
			c3.1-1.4,6.4-2.3,9.7-3.1C224.1,87.9,226.6,88,228.8,87.8z"/>
		<path class="st0" d="M67.1,87.8c-18.2-0.1-34.7,15-36.3,32.9c-1.3,14.4,12.5,29.4,28.2,31c8,0.8,15.4-0.9,22.6-4.2
			c16.4-7.6,32.9-7.3,49.4-0.4c0.3,0.1,0.6,0.2,1,0.3c2.3,0.4,4.6-1.6,4-3.9c0-0.2-0.1-0.4-0.2-0.5c-12.7-21.8-28.4-40.7-52-51.4
			c-3.1-1.4-6.4-2.3-9.7-3.1C71.8,87.9,69.3,88,67.1,87.8z"/>
		<path class="st0" d="M81.6,545.3c5.6-38.6,11.1-77.2,16.9-117.1c23.9,18.3,47.2,36.2,71.4,54.7c-29.3,21.2-58.1,42.1-86.9,63
			C82.4,545.7,82,545.5,81.6,545.3z"/>
		<path class="st0" d="M120.6,411.8c18.5-11.8,36.7-23.3,55.9-35.5c4.3,29.5,8.4,58.1,12.8,88.3
			C165.9,446.5,143.5,429.3,120.6,411.8z"/>
		<path class="st0" d="M194.2,497.9c2.7,18.5,5.1,38.8,7.7,56.5c-27,0-56.4,0-84.5,0C142.5,536.2,169.4,515.9,194.2,497.9z"/>
		<path class="st0" d="M113.3,325.3c14.6,10.9,28.5,21.2,43.3,32.2c-17.7,11.3-34.9,22.2-52.8,33.6C107,369,110,347.8,113.3,325.3z"
			/>
		<path class="st0" d="M120.3,276.7c3.1-21.3,5.9-40.9,8.8-60.9c8,0,15.8,0,24.3,0c1.3,8.9,2.6,18,3.7,27.1c0.1,1.2-0.5,3.1-1.5,3.9
			C144.4,256.5,132.9,266.1,120.3,276.7z"/>
		<path class="st0" d="M129.1,304c11-9.3,21.5-18.2,33-27.9c2.9,19.9,5.6,38.8,8.5,58.9C156.4,324.4,143,314.4,129.1,304z"/>
	</g>
	<rect x="7.5" y="554.7" class="st0" width="266.9" height="22"/>
</g>
</svg>
