<?xml version="1.0" encoding="utf-8"?>
<!-- Generator: Adobe Illustrator 24.0.2, SVG Export Plug-In . SVG Version: 6.00 Build 0)  -->
<svg version="1.1" id="Capa_1" xmlns="http://www.w3.org/2000/svg" xmlns:xlink="http://www.w3.org/1999/xlink" x="0px" y="0px"
	 viewBox="0 0 841.9 595.3" style="enable-background:new 0 0 841.9 595.3;" xml:space="preserve">
<style type="text/css">
	.st0{fill:none;}
	.st1{fill:none;stroke:#FFFFFF;stroke-width:8;stroke-miterlimit:10;}
	.st2{fill:#FFFFFF;}
</style>
<g>
	<path class="st0" d="M347.8,182.7"/>
</g>
<path class="st1" d="M292.1,138.4h271.1c79.1,0,77.6,82.8,77.6,82.8h-87.5v266.4c0,0-3,61.2-72.3,64.7H225.6
	c-14.7,0-28.3-10.2-33.2-25.9c-2.4-7.8-2.8-16.8,1.4-26.5c5.6-12.9,17.4-20.9,30.1-21.3l64.6-2.1V196.6"/>
<path class="st1" d="M222.2,478.6l219.3-2.3c0,0,4.2,60.3,27.6,75.9"/>
<path class="st2" d="M378.2,267.4c0,0-125.4,55.4-203.7-136.1c-6.3-15.3-20.8-26-37.3-26.8c-0.7,0-1.4-0.1-2.1-0.1
	C135.1,104.4,336.8,20,378.2,267.4"/>
<g>
	<path class="st2" d="M396.4,307.1c-1-2.5-2-4.8-3.1-7.2c-1.1-2.4-2.4-4.7-3.6-7c-2.6-4.5-5.3-9-8.2-13.2c-1.5-2.1-2.9-4.3-4.5-6.3
		l-2.4-3.1c-0.4-0.5-0.8-1-1.2-1.5l-1.3-1.5c-1.7-2-3.3-4-5-6l-5.2-5.7c-1.7-1.9-3.7-3.6-5.5-5.4l-2.8-2.6c-0.9-0.9-2-1.7-2.9-2.5
		c-2-1.7-3.9-3.4-5.8-5.1c-2-1.7-3.9-3.3-5.8-5.1l-2.8-2.6c-0.9-0.9-2-1.7-2.9-2.5c-2-1.7-3.9-3.4-5.8-5.2l-1.4-1.3l-1.5-1.3
		c-1-0.8-2-1.7-3-2.6c-2-1.8-3.9-3.5-5.8-5.5l0.4-0.7c2.5,0.9,5,2,7.4,3.1c1.2,0.6,2.4,1.1,3.6,1.7l1.8,0.9l1.7,1
		c2.3,1.3,4.6,2.7,6.9,4.2c1.1,0.7,2.3,1.4,3.4,2.2l3.2,2.4c2.1,1.6,4.2,3.3,6.3,5c1.9,1.8,3.9,3.7,5.7,5.6c0.9,1,1.9,1.9,2.8,2.9
		l2.6,3l2.6,3c0.9,1,1.8,2,2.6,3.1c6.9,8.2,12.9,17,18.1,26.3c5.1,9.3,9.6,19,12.3,29.2L396.4,307.1z"/>
</g>
<line class="st1" x1="523.7" y1="228.7" x2="319.4" y2="228.7"/>
<line class="st1" x1="523.7" y1="267.7" x2="319.4" y2="267.7"/>
<line class="st1" x1="523.7" y1="306.6" x2="319.4" y2="306.6"/>
<line class="st1" x1="523.7" y1="347.8" x2="319.4" y2="347.8"/>
<line class="st1" x1="523.7" y1="386.8" x2="319.4" y2="386.8"/>
<line class="st1" x1="432.4" y1="425.7" x2="319.4" y2="425.7"/>
</svg>
