<?xml version="1.0" encoding="utf-8"?>
<!-- Generator: Adobe Illustrator 24.0.2, SVG Export Plug-In . SVG Version: 6.00 Build 0)  -->
<svg version="1.1" id="Capa_1" xmlns="http://www.w3.org/2000/svg" xmlns:xlink="http://www.w3.org/1999/xlink" x="0px" y="0px"
	 viewBox="0 0 345.6 133.2" style="enable-background:new 0 0 345.6 133.2;" xml:space="preserve">
<style type="text/css">
	.st0{fill:#DC88B4;}
	.st1{fill:#F0927C;}
	.st2{fill:none;stroke:#FFFFFF;stroke-width:2;stroke-miterlimit:10;}
	.st3{fill:#DC6AB2;}
	.st4{fill:#842349;}
</style>
<path class="st0" d="M80.1,20.8c31.9,0,57.8,21.7,57.8,48.5s-25.9,48.5-57.8,48.5c-9.4,0-18.3-1.9-26.1-5.2
	c-6-2.6-12.8-3.2-19.2-1.5l-12,3.2c0,0,3.5-6,5.8-12.4c1.5-4,1.1-8.5-1-12.3c-3.5-6.2-5.4-13.1-5.4-20.4
	C22.3,42.5,48.1,20.8,80.1,20.8z"/>
<path class="st1" d="M68.9,8.4c31.9,0,57.8,21.7,57.8,48.5s-25.9,48.5-57.8,48.5c-9.4,0-18.3-1.9-26.1-5.2c-6-2.6-12.8-3.2-19.2-1.5
	l-12,3.2c0,0,3.5-6,5.8-12.4c1.5-4,1.1-8.5-1-12.3c-3.4-6.2-5.4-13.1-5.4-20.5C11.1,30.2,37,8.4,68.9,8.4z"/>
<path class="st2" d="M68.9,8.4C37,8.4,11.1,30.2,11.1,57c0,7.3,1.9,14.2,5.4,20.5c2.1,3.8,2.4,8.3,1,12.3
	c-2.3,6.4-5.8,12.4-5.8,12.4l12-3.2c6.4-1.7,13.1-1.1,19.2,1.5c7.8,3.3,16.7,5.2,26.1,5.2c31.9,0,57.8-21.7,57.8-48.5
	S100.8,8.4,68.9,8.4z"/>
<path class="st3" d="M185.5,22.1c0-0.2,0.1-0.4,0.3-0.5c0.1-0.1,0.3-0.2,0.6-0.2h6.1c0.4,0,0.7,0.2,0.9,0.7l4.8,16l4.8-16
	c0.2-0.5,0.5-0.7,0.9-0.7h6c0.2,0,0.4,0.1,0.6,0.2c0.2,0.1,0.3,0.3,0.3,0.6c0.4,4.1,0.8,8.3,1.3,12.3s0.9,8.2,1.3,12.3v0.1
	c0,0.5-0.3,0.7-0.8,0.7h-5c-0.5,0-0.8-0.3-0.9-0.8l-1.5-13.7l-4,13.7c0,0.1-0.1,0.3-0.3,0.4c-0.1,0.2-0.3,0.3-0.4,0.3h-4.6
	c-0.1,0-0.3-0.1-0.4-0.2s-0.2-0.3-0.3-0.4l-4-13.7l-1.5,13.6c0,0.5-0.3,0.8-0.9,0.8h-5c-0.5,0-0.8-0.3-0.8-0.8L185.5,22.1z"/>
<path class="st3" d="M239.2,46.2c0,0.2,0,0.4-0.1,0.6s-0.2,0.3-0.4,0.4c-0.1,0.1-0.3,0.2-0.5,0.3c-0.2,0-0.3,0-0.5,0h-3.5
	c-0.3,0-0.4,0-0.6-0.1c-0.1-0.1-0.3-0.2-0.4-0.3c-0.1-0.1-0.2-0.3-0.2-0.4c-0.1-0.2-0.1-0.4-0.2-0.6l-0.2-0.8
	c-0.3,0.3-0.7,0.6-1.1,0.9c-0.4,0.3-0.9,0.6-1.3,0.8c-0.5,0.2-1,0.4-1.6,0.6c-0.6,0.2-1.1,0.2-1.7,0.2c-1.1,0-2.1-0.1-3.1-0.4
	c-1-0.3-1.9-0.7-2.8-1.2s-1.6-1.1-2.3-1.8s-1.3-1.5-1.8-2.3s-0.9-1.8-1.2-2.8s-0.4-2-0.4-3.1c0-1.6,0.3-3.2,0.9-4.6
	c0.6-1.4,1.4-2.6,2.4-3.7c1-1,2.3-1.9,3.6-2.5s2.9-0.9,4.5-0.9c0.7,0,1.4,0.1,2,0.3c0.6,0.2,1.2,0.4,1.7,0.7c0.5,0.3,1,0.6,1.4,1
	c0.4,0.4,0.8,0.8,1.1,1.3l0.5-1.6c0.1-0.3,0.2-0.5,0.3-0.7c0.1-0.2,0.2-0.3,0.3-0.4s0.2-0.1,0.3-0.2s0.3,0,0.6,0h2.6
	c0.1,0,0.3,0,0.5,0s0.3,0.1,0.5,0.3c0.2,0.1,0.3,0.3,0.4,0.4c0.1,0.2,0.1,0.4,0.1,0.6L239.2,46.2L239.2,46.2z M221.8,36.3
	c0,0.8,0.1,1.5,0.4,2.2s0.6,1.3,1,1.8c0.4,0.5,1,0.9,1.6,1.2s1.3,0.4,2.1,0.4c0.8,0,1.5-0.1,2.2-0.4s1.3-0.7,1.8-1.2
	c0.5-0.5,0.9-1.1,1.2-1.8c0.3-0.7,0.4-1.4,0.4-2.2c0-0.8-0.1-1.5-0.4-2.2s-0.7-1.3-1.2-1.8s-1.1-0.9-1.8-1.2
	c-0.7-0.3-1.4-0.5-2.2-0.5c-0.8,0-1.5,0.1-2.1,0.5c-0.6,0.3-1.2,0.7-1.6,1.2c-0.4,0.5-0.8,1.1-1,1.8S221.8,35.6,221.8,36.3z"/>
<path class="st3" d="M243.4,19.8c0-0.4,0.1-0.7,0.3-1s0.5-0.4,1-0.4h4.3c0.1,0,0.2,0,0.4,0.1c0.1,0.1,0.3,0.2,0.4,0.3
	c0.1,0.1,0.2,0.3,0.3,0.4c0.1,0.2,0.1,0.4,0.1,0.5v26.4c0,0.5-0.1,0.8-0.4,1c-0.3,0.2-0.6,0.3-1,0.3h-4.1c-0.5,0-0.8-0.1-1-0.3
	s-0.3-0.6-0.3-1L243.4,19.8L243.4,19.8z"/>
<path class="st3" d="M273.1,44.8c-1,1-2.2,1.7-3.5,2.2c-1.3,0.5-2.7,0.8-4.1,0.8c-1.6,0-3.1-0.3-4.6-0.9c-1.4-0.6-2.7-1.4-3.8-2.5
	s-1.9-2.3-2.6-3.7s-0.9-3-0.9-4.6c0-1,0.1-2,0.4-3c0.3-1,0.6-1.9,1.1-2.7c0.5-0.9,1-1.6,1.7-2.3c0.7-0.7,1.4-1.3,2.2-1.8
	s1.7-0.9,2.7-1.2c1-0.3,2-0.4,3-0.4c1,0,1.9,0.1,2.8,0.4c0.9,0.3,1.8,0.6,2.6,1.1s1.5,1,2.2,1.7c0.7,0.7,1.3,1.4,1.7,2.2
	s0.9,1.6,1.1,2.5s0.4,1.8,0.4,2.7c0,0.6,0,1.1,0,1.5s-0.1,0.7-0.3,0.9s-0.4,0.4-0.8,0.5s-0.9,0.1-1.7,0.1h-12.7
	c0.1,0.8,0.4,1.4,0.7,1.9c0.4,0.5,0.8,0.9,1.2,1.2s1,0.5,1.5,0.6c0.5,0.1,1,0.2,1.5,0.2c0.4,0,0.9,0,1.3-0.1s0.9-0.2,1.3-0.3
	s0.8-0.3,1.1-0.5s0.6-0.4,0.8-0.6c0.2-0.2,0.4-0.3,0.5-0.3c0.1-0.1,0.3-0.1,0.4-0.1s0.3,0,0.5,0.2s0.3,0.3,0.5,0.5l1.9,2.1
	c0.1,0.2,0.2,0.3,0.3,0.4s0,0.3,0,0.4c0,0.2-0.1,0.4-0.2,0.6C273.5,44.6,273.3,44.7,273.1,44.8z M264.7,30.1c-0.5,0-0.9,0.1-1.3,0.3
	s-0.8,0.4-1.2,0.7c-0.4,0.3-0.7,0.6-1,1c-0.3,0.4-0.5,0.8-0.7,1.2h9c-0.3-0.5-0.5-0.9-0.8-1.3c-0.3-0.4-0.6-0.7-1-1
	s-0.8-0.5-1.3-0.7C265.9,30.2,265.3,30.1,264.7,30.1z"/>
<path class="st3" d="M279.8,25.4c0.1-0.1,0.3-0.2,0.5-0.3s0.3,0,0.5,0h2.7c0.2,0,0.4,0,0.5,0.1c0.1,0.1,0.3,0.2,0.4,0.3
	c0.1,0.1,0.2,0.3,0.3,0.4c0.1,0.2,0.1,0.3,0.2,0.5l0.4,1.5c0.2-0.4,0.5-0.7,0.9-1.1c0.4-0.4,0.9-0.7,1.5-1.1c0.6-0.3,1.3-0.6,2-0.8
	c0.8-0.2,1.6-0.3,2.6-0.3c1.3,0,2.5,0.3,3.6,0.8c1,0.5,2,1.2,2.7,2.1s1.3,1.9,1.7,3.1c0.4,1.2,0.6,2.5,0.6,3.8v11.6
	c0,0.5-0.1,0.8-0.3,1c-0.2,0.2-0.5,0.3-0.9,0.3h-4.1c-0.5,0-0.9-0.1-1-0.3s-0.3-0.5-0.3-1V34.8c0-0.5-0.1-1-0.3-1.4
	c-0.2-0.5-0.5-0.8-0.9-1.2c-0.4-0.4-0.8-0.6-1.3-0.8c-0.5-0.2-1-0.3-1.5-0.3c-0.4,0-0.9,0.1-1.3,0.3s-0.9,0.5-1.2,0.8
	c-0.4,0.3-0.7,0.7-0.9,1.2c-0.3,0.5-0.4,0.9-0.4,1.5v11.5c0,0.2,0,0.4-0.1,0.6c-0.1,0.2-0.2,0.3-0.3,0.5c-0.1,0.1-0.3,0.2-0.4,0.2
	c-0.1,0-0.3,0-0.5,0h-4c-0.5,0-0.9-0.1-1.1-0.4s-0.3-0.6-0.3-1V26.4c0-0.2,0-0.4,0.1-0.6s0.2-0.3,0.4-0.4L279.8,25.4z"/>
<path class="st3" d="M328,46.2c0,0.2,0,0.4-0.1,0.6c-0.1,0.2-0.2,0.3-0.4,0.4c-0.1,0.1-0.3,0.2-0.5,0.3s-0.3,0-0.5,0h-3.5
	c-0.3,0-0.5,0-0.6-0.1c-0.1-0.1-0.3-0.2-0.4-0.3c-0.1-0.1-0.2-0.3-0.2-0.4c-0.1-0.2-0.1-0.4-0.2-0.6l-0.2-0.8
	c-0.3,0.3-0.7,0.6-1.1,0.9c-0.4,0.3-0.9,0.6-1.3,0.8c-0.5,0.2-1,0.4-1.6,0.6c-0.6,0.2-1.1,0.2-1.7,0.2c-1.1,0-2.1-0.1-3.1-0.4
	c-1-0.3-1.9-0.7-2.8-1.2s-1.6-1.1-2.3-1.8s-1.3-1.5-1.8-2.3s-0.9-1.8-1.2-2.8s-0.4-2-0.4-3.1c0-1.6,0.3-3.2,0.9-4.6
	c0.6-1.4,1.4-2.6,2.5-3.7c1-1,2.3-1.9,3.6-2.5s2.9-0.9,4.5-0.9c0.7,0,1.4,0.1,2,0.3s1.2,0.4,1.7,0.7c0.5,0.3,1,0.6,1.4,1
	c0.4,0.4,0.8,0.8,1.1,1.3l0.5-1.6c0.1-0.3,0.2-0.5,0.3-0.7c0.1-0.2,0.2-0.3,0.3-0.4s0.2-0.1,0.3-0.2c0.1,0,0.3,0,0.5,0h2.6
	c0.1,0,0.3,0,0.5,0c0.2,0,0.3,0.1,0.5,0.3c0.2,0.1,0.3,0.3,0.4,0.4c0.1,0.2,0.1,0.4,0.1,0.6L328,46.2L328,46.2z M310.6,36.3
	c0,0.8,0.1,1.5,0.4,2.2s0.6,1.3,1,1.8c0.5,0.5,1,0.9,1.6,1.2c0.6,0.3,1.3,0.4,2.1,0.4c0.8,0,1.5-0.1,2.2-0.4
	c0.7-0.3,1.3-0.7,1.8-1.2c0.5-0.5,0.9-1.1,1.2-1.8c0.3-0.7,0.4-1.4,0.4-2.2c0-0.8-0.1-1.5-0.4-2.2s-0.7-1.3-1.2-1.8
	s-1.1-0.9-1.8-1.2c-0.7-0.3-1.4-0.5-2.2-0.5c-0.8,0-1.5,0.1-2.1,0.5c-0.6,0.3-1.2,0.7-1.6,1.2c-0.5,0.5-0.8,1.1-1,1.8
	S310.6,35.6,310.6,36.3z"/>
<path class="st3" d="M210.4,64.8c0.2,0.1,0.4,0.3,0.4,0.5s0.1,0.4-0.1,0.7l-3,4.2c-0.1,0.2-0.3,0.3-0.4,0.3c-0.1,0-0.3,0-0.5-0.2
	c-0.6-0.4-1.2-0.8-1.9-1c-0.7-0.2-1.4-0.3-2.2-0.3c-1,0-1.9,0.2-2.7,0.6c-0.8,0.4-1.5,0.9-2.1,1.5c-0.6,0.6-1.1,1.4-1.4,2.2
	c-0.3,0.8-0.5,1.8-0.5,2.7s0.2,1.9,0.5,2.7c0.3,0.8,0.8,1.6,1.4,2.2c0.6,0.6,1.3,1.1,2.1,1.5c0.8,0.4,1.7,0.6,2.7,0.6
	c0.8,0,1.5-0.1,2.2-0.4c0.7-0.2,1.4-0.6,1.9-1c0.2-0.1,0.4-0.2,0.5-0.2s0.3,0.1,0.4,0.3l3,4.3c0.1,0.3,0.1,0.5,0.1,0.7
	s-0.2,0.3-0.4,0.4c-1.1,0.7-2.3,1.3-3.6,1.7c-1.3,0.4-2.6,0.6-4,0.6c-1.3,0-2.4-0.2-3.6-0.5c-1.1-0.3-2.2-0.8-3.2-1.4
	c-1-0.6-1.9-1.3-2.7-2.1c-0.8-0.8-1.5-1.7-2.1-2.7c-0.6-1-1-2.1-1.4-3.2s-0.5-2.3-0.5-3.6s0.2-2.4,0.5-3.6c0.3-1.2,0.8-2.2,1.4-3.2
	s1.3-1.9,2.1-2.7s1.7-1.5,2.7-2.1s2.1-1,3.2-1.4c1.1-0.3,2.3-0.5,3.6-0.5c1.4,0,2.8,0.2,4,0.6C208.1,63.5,209.3,64,210.4,64.8z"/>
<path class="st3" d="M237.6,87.8c0,0.2,0,0.4-0.1,0.6s-0.2,0.3-0.4,0.4c-0.1,0.1-0.3,0.2-0.5,0.3c-0.2,0-0.3,0.1-0.5,0.1h-3.5
	c-0.3,0-0.4,0-0.6-0.1c-0.1-0.1-0.3-0.2-0.4-0.3c-0.1-0.1-0.2-0.3-0.2-0.4c-0.1-0.2-0.1-0.4-0.2-0.6l-0.2-0.8
	c-0.3,0.3-0.7,0.6-1.1,0.9c-0.4,0.3-0.9,0.6-1.3,0.8c-0.5,0.2-1,0.4-1.6,0.6c-0.6,0.2-1.1,0.2-1.7,0.2c-1.1,0-2.1-0.1-3.1-0.4
	c-1-0.3-1.9-0.7-2.8-1.2s-1.6-1.1-2.3-1.8c-0.7-0.7-1.3-1.5-1.8-2.3c-0.5-0.9-0.9-1.8-1.2-2.8s-0.4-2-0.4-3.1c0-1.6,0.3-3.2,0.9-4.6
	c0.6-1.4,1.4-2.6,2.4-3.7c1-1,2.3-1.9,3.6-2.4s2.9-0.9,4.5-0.9c0.7,0,1.4,0.1,2,0.3c0.6,0.2,1.2,0.4,1.7,0.7c0.5,0.3,1,0.6,1.4,1
	c0.4,0.4,0.8,0.8,1.1,1.3l0.5-1.6c0.1-0.3,0.2-0.5,0.3-0.7c0.1-0.2,0.2-0.3,0.3-0.4c0.1-0.1,0.2-0.2,0.3-0.2s0.3,0,0.6,0h2.6
	c0.1,0,0.3,0,0.5,0.1c0.2,0,0.3,0.1,0.5,0.3c0.2,0.1,0.3,0.3,0.4,0.4c0.1,0.2,0.1,0.3,0.1,0.6L237.6,87.8L237.6,87.8z M220.2,77.9
	c0,0.8,0.1,1.5,0.4,2.2s0.6,1.3,1,1.8c0.4,0.5,1,0.9,1.6,1.2c0.6,0.3,1.3,0.4,2.1,0.4c0.8,0,1.5-0.1,2.2-0.4s1.3-0.7,1.8-1.2
	s0.9-1.1,1.2-1.8s0.4-1.4,0.4-2.2c0-0.8-0.1-1.5-0.4-2.2s-0.7-1.3-1.2-1.8c-0.5-0.5-1.1-0.9-1.8-1.2c-0.7-0.3-1.4-0.4-2.2-0.4
	c-0.8,0-1.5,0.2-2.1,0.4c-0.6,0.3-1.2,0.7-1.6,1.2c-0.4,0.5-0.8,1.1-1,1.8C220.3,76.4,220.2,77.1,220.2,77.9z"/>
<path class="st3" d="M241.9,61.3c0-0.4,0.1-0.7,0.3-1c0.2-0.3,0.5-0.4,1-0.4h4.3c0.1,0,0.2,0,0.4,0.1c0.1,0.1,0.3,0.2,0.4,0.3
	s0.2,0.3,0.3,0.4c0.1,0.2,0.1,0.3,0.1,0.5v26.4c0,0.4-0.1,0.8-0.4,1c-0.3,0.2-0.6,0.3-1,0.3h-4.1c-0.5,0-0.8-0.1-1-0.3
	c-0.2-0.2-0.3-0.6-0.3-1L241.9,61.3L241.9,61.3z"/>
<path class="st3" d="M252.8,61.3c0-0.4,0.1-0.7,0.3-1c0.2-0.3,0.5-0.4,1-0.4h4.3c0.1,0,0.2,0,0.4,0.1c0.1,0.1,0.3,0.2,0.4,0.3
	s0.2,0.3,0.3,0.4c0.1,0.2,0.1,0.3,0.1,0.5v26.4c0,0.4-0.1,0.8-0.4,1c-0.3,0.2-0.6,0.3-1,0.3H254c-0.5,0-0.8-0.1-1-0.3
	c-0.2-0.2-0.3-0.6-0.3-1L252.8,61.3L252.8,61.3z"/>
<path class="st3" d="M282.5,86.4c-1,0.9-2.2,1.7-3.5,2.2c-1.3,0.5-2.7,0.8-4.1,0.8c-1.6,0-3.1-0.3-4.6-0.9c-1.4-0.6-2.7-1.4-3.8-2.4
	c-1.1-1-1.9-2.3-2.6-3.7c-0.6-1.4-1-2.9-1-4.6c0-1,0.1-2,0.4-3s0.6-1.9,1.1-2.7c0.5-0.8,1-1.6,1.7-2.3s1.4-1.3,2.2-1.8
	s1.7-0.9,2.7-1.2c1-0.3,2-0.4,3-0.4c1,0,1.9,0.1,2.8,0.4c0.9,0.3,1.8,0.6,2.6,1.1c0.8,0.5,1.5,1,2.2,1.7c0.7,0.7,1.3,1.4,1.7,2.2
	c0.5,0.8,0.9,1.6,1.1,2.5s0.4,1.8,0.4,2.7c0,0.6,0,1.1,0,1.5s-0.1,0.7-0.3,0.9s-0.4,0.4-0.8,0.5s-0.9,0.1-1.7,0.1h-12.7
	c0.1,0.8,0.4,1.4,0.7,1.9c0.4,0.5,0.8,0.9,1.2,1.2c0.5,0.3,1,0.5,1.5,0.6c0.5,0.1,1,0.2,1.5,0.2c0.4,0,0.9,0,1.3-0.1
	s0.9-0.2,1.3-0.3s0.8-0.3,1.1-0.5s0.6-0.4,0.8-0.6c0.2-0.2,0.4-0.3,0.5-0.3c0.1-0.1,0.3-0.1,0.4-0.1s0.3,0.1,0.5,0.2
	s0.3,0.3,0.5,0.5l1.9,2.1c0.1,0.2,0.2,0.3,0.3,0.4s0,0.3,0,0.4c0,0.2-0.1,0.4-0.2,0.6C282.9,86.1,282.7,86.3,282.5,86.4z M274,71.7
	c-0.5,0-0.9,0.1-1.3,0.3s-0.8,0.4-1.2,0.7c-0.4,0.3-0.7,0.7-1,1c-0.3,0.4-0.5,0.8-0.7,1.2h9c-0.3-0.5-0.5-0.9-0.8-1.3
	c-0.3-0.4-0.6-0.7-1-1c-0.4-0.3-0.8-0.5-1.3-0.7C275.2,71.8,274.7,71.7,274,71.7z"/>
<path class="st3" d="M288.8,68c0-0.5,0.1-0.8,0.4-1c0.3-0.2,0.6-0.3,1-0.3h4c0.4,0,0.8,0.1,1,0.4c0.2,0.3,0.4,0.6,0.4,1v20.3
	c0,1.1-0.2,2.1-0.7,3.1c-0.5,1-1.1,1.8-1.9,2.5c-0.8,0.7-1.7,1.3-2.7,1.7c-1,0.4-2.1,0.6-3.1,0.6h-0.4c-0.4,0-0.8-0.2-1-0.4
	s-0.3-0.5-0.3-0.9v-2.5c0-0.4,0.1-0.8,0.4-1c0.3-0.3,0.6-0.4,1-0.4h0.4c0.2,0,0.5-0.1,0.6-0.3c0.2-0.2,0.4-0.4,0.5-0.7
	c0.1-0.3,0.3-0.6,0.3-0.9s0.1-0.6,0.1-0.8L288.8,68L288.8,68z M288.7,59.1c0-0.5,0.1-0.8,0.3-1c0.2-0.2,0.5-0.3,1-0.3h4.1
	c0.4,0,0.7,0.1,1,0.3c0.3,0.2,0.4,0.6,0.4,1v3.4c0,0.1,0,0.3-0.1,0.5c-0.1,0.2-0.2,0.3-0.3,0.5c-0.1,0.2-0.3,0.3-0.4,0.4
	c-0.2,0.1-0.4,0.2-0.6,0.2h-4.1c-0.9,0-1.3-0.5-1.3-1.5L288.7,59.1L288.7,59.1z"/>
<path class="st3" d="M299.1,77.9c0-1.1,0.1-2.1,0.4-3.1c0.3-1,0.7-1.9,1.2-2.8s1.1-1.6,1.8-2.3c0.7-0.7,1.5-1.3,2.3-1.8
	s1.8-0.9,2.8-1.2c1-0.3,2-0.4,3.1-0.4c1.6,0,3.1,0.3,4.5,0.9s2.6,1.4,3.7,2.4c1,1,1.9,2.3,2.5,3.7c0.6,1.4,0.9,2.9,0.9,4.6
	c0,1.1-0.1,2.1-0.4,3.1c-0.3,1-0.7,1.9-1.2,2.8s-1.1,1.6-1.8,2.3c-0.7,0.7-1.5,1.3-2.3,1.8s-1.8,0.9-2.8,1.2c-1,0.3-2,0.4-3.1,0.4
	c-1.1,0-2.1-0.1-3.1-0.4c-1-0.3-1.9-0.7-2.8-1.2s-1.6-1.1-2.3-1.8c-0.7-0.7-1.3-1.5-1.8-2.3c-0.5-0.9-0.9-1.8-1.2-2.8
	C299.3,80,299.1,79,299.1,77.9z M305.6,77.9c0,0.8,0.1,1.5,0.4,2.2s0.6,1.3,1,1.8c0.4,0.5,1,0.9,1.6,1.2c0.6,0.3,1.3,0.4,2.1,0.4
	c0.8,0,1.5-0.1,2.1-0.4s1.1-0.7,1.6-1.2s0.8-1.1,1-1.8c0.2-0.7,0.3-1.4,0.3-2.2c0-0.8-0.1-1.5-0.3-2.2s-0.6-1.3-1-1.8
	c-0.4-0.5-1-0.9-1.6-1.2s-1.3-0.4-2.1-0.4c-0.8,0-1.5,0.2-2.1,0.4c-0.6,0.3-1.2,0.7-1.6,1.2c-0.4,0.5-0.8,1.1-1,1.8
	C305.7,76.4,305.6,77.1,305.6,77.9z"/>
<g>
	<path class="st4" d="M188.1,99.9h-6.8v19.9h-1V99.9h-6.8V99h14.6V99.9z"/>
	<path class="st4" d="M197.4,103.7v0.9h-1.4c-3.4,0-5.6,2.6-5.6,6.2v9.1h-0.9v-16.1h0.8l0.2,3.6c1-2.3,3-3.7,5.7-3.7
		C196,103.7,197.4,103.7,197.4,103.7z"/>
	<path class="st4" d="M215,103.8v16.1h-0.8l-0.1-4.2c-1.3,2.7-4,4.5-7.3,4.5c-4.7,0-8.2-3.6-8.2-8.3c0-4.8,3.5-8.3,8.2-8.3
		c3.4,0,6.1,1.8,7.3,4.5l0.1-4.2L215,103.8z M214,111.8c0-4.3-3.1-7.4-7.3-7.4c-4.1,0-7.3,3.2-7.3,7.4c0,4.2,3.1,7.4,7.3,7.4
		C210.9,119.2,214,116.1,214,111.8z"/>
	<path class="st4" d="M235.8,98.1v21.8H235l-0.1-4.1c-1.3,2.7-4,4.4-7.3,4.4c-4.7,0-8.2-3.6-8.2-8.3c0-4.8,3.5-8.3,8.2-8.3
		c3.3,0,5.9,1.7,7.3,4.4v-9.7L235.8,98.1z M234.9,111.8c0-4.3-3.1-7.4-7.3-7.4c-4.1,0-7.3,3.2-7.3,7.4c0,4.2,3.1,7.4,7.3,7.4
		C231.9,119.2,234.9,116.1,234.9,111.8z"/>
	<path class="st4" d="M241.4,113.1v-9.3h0.9v9.2c0,3.8,2.2,6.2,5.8,6.2c3.6,0,5.8-2.4,5.8-6.2v-9.2h0.9v9.3c0,4.3-2.6,7.1-6.8,7.1
		C244,120.1,241.4,117.4,241.4,113.1z"/>
	<path class="st4" d="M259,111.8c0-4.8,3.6-8.3,8.3-8.3c3.6,0,6.4,2,7.5,5.1h-1c-1.1-2.6-3.6-4.1-6.5-4.1c-4.2,0-7.3,3.2-7.3,7.4
		c0,4.2,3.1,7.4,7.3,7.4c2.9,0,5.4-1.5,6.5-4.2h1c-1.2,3.1-4,5.1-7.5,5.1C262.6,120.1,259,116.5,259,111.8z"/>
	<path class="st4" d="M286.9,118.9v0.9h-2.1c-3,0-4.8-1.8-4.8-4.9v-10.3h-3.7v-0.8h3.7V99h1v4.8h5.8v0.8H281v10.3c0,2.5,1.4,4,4,4
		L286.9,118.9L286.9,118.9z"/>
	<path class="st4" d="M288.6,111.8c0-4.8,3.6-8.3,8.4-8.3c4.8,0,8.4,3.6,8.4,8.3s-3.6,8.3-8.4,8.3
		C292.2,120.1,288.6,116.6,288.6,111.8z M304.4,111.8c0-4.3-3.1-7.4-7.4-7.4s-7.4,3.2-7.4,7.4c0,4.3,3.2,7.4,7.4,7.4
		C301.2,119.2,304.4,116,304.4,111.8z"/>
	<path class="st4" d="M317.8,103.7v0.9h-1.4c-3.4,0-5.6,2.6-5.6,6.2v9.1h-1v-16.1h0.8l0.2,3.6c1-2.3,3-3.7,5.7-3.7
		C316.4,103.7,317.8,103.7,317.8,103.7z"/>
	<path class="st4" d="M335.4,103.8v16.1h-0.8l-0.1-4.2c-1.3,2.7-4,4.5-7.3,4.5c-4.7,0-8.2-3.6-8.2-8.3c0-4.8,3.5-8.3,8.2-8.3
		c3.4,0,6,1.8,7.3,4.5l0.1-4.2L335.4,103.8z M334.4,111.8c0-4.3-3.1-7.4-7.3-7.4c-4.1,0-7.3,3.2-7.3,7.4c0,4.2,3.1,7.4,7.3,7.4
		C331.4,119.2,334.4,116.1,334.4,111.8z"/>
</g>
</svg>
